<?xml version="1.0" encoding="UTF-8" standalone="no"?>
<svg width="14px" height="14px" viewBox="0 0 14 14" version="1.1" xmlns="http://www.w3.org/2000/svg" xmlns:xlink="http://www.w3.org/1999/xlink">
    <!-- Generator: Sketch 39.1 (31720) - http://www.bohemiancoding.com/sketch -->
    <title>Clock</title>
    <desc>Created with Sketch.</desc>
    <defs></defs>
    <g id="Page-1" stroke="none" stroke-width="1" fill="none" fill-rule="evenodd" opacity="0.502390392">
        <g id="Color-Pictures" transform="translate(-220.000000, -653.000000)" fill="#FFFFFF">
            <g id="Block1" transform="translate(200.000000, 385.000000)">
                <path d="M28,275 L31,275 L31,277 L27,277 C26.45,277 26,276.55 26,276 L26,271 L28,271 L28,275 L28,275 Z M27,269.3 C30.14,269.3 32.7,271.86 32.7,275 C32.7,278.14 30.14,280.7 27,280.7 C23.86,280.7 21.3,278.14 21.3,275 C21.3,271.86 23.86,269.3 27,269.3 L27,269.3 Z M27,268 C23.14,268 20,271.14 20,275 C20,278.86 23.14,282 27,282 C30.86,282 34,278.86 34,275 C34,271.14 30.86,268 27,268 L27,268 Z" id="Clock"></path>
            </g>
        </g>
    </g>
</svg>